<svg width="35" height="35" viewBox="0 0 35 35" fill="none" xmlns="http://www.w3.org/2000/svg">
<path fill-rule="evenodd" clip-rule="evenodd" d="M5 0C2.23858 0 0 2.23858 0 5V30C0 32.7614 2.23858 35 5 35H30C32.7614 35 35 32.7614 35 30V5C35 2.23858 32.7614 0 30 0H5ZM13.6501 9.10007C13.6501 11.8063 11.4563 14.0001 8.7501 14.0001C6.0439 14.0001 3.8501 11.8063 3.8501 9.10007C3.8501 6.39388 6.0439 4.20007 8.7501 4.20007C11.4563 4.20007 13.6501 6.39388 13.6501 9.10007ZM13.6501 25.9002C13.6501 28.6063 11.4562 30.8002 8.75005 30.8002C6.04386 30.8002 3.85005 28.6063 3.85005 25.9002C3.85005 23.194 6.04386 21.0002 8.75005 21.0002C11.4562 21.0002 13.6501 23.194 13.6501 25.9002ZM25.725 14.0002C28.5279 14.0002 30.8 11.8064 30.8 9.10019C30.8 6.394 28.5279 4.20019 25.725 4.20019C22.9222 4.20019 20.65 6.394 20.65 9.10019C20.65 11.8064 22.9222 14.0002 25.725 14.0002ZM30.8 25.9002C30.8 28.6063 28.5279 30.8002 25.725 30.8002C22.9222 30.8002 20.65 28.6063 20.65 25.9002C20.65 23.194 22.9222 21.0002 25.725 21.0002C28.5279 21.0002 30.8 23.194 30.8 25.9002Z" fill="#1E1E1E"/>
</svg>

