<svg width="42" height="32" viewBox="0 0 42 32" fill="none" xmlns="http://www.w3.org/2000/svg">
<path d="M34.8765 3.03041C39.5148 9.85101 41.8053 17.5437 40.9496 26.4001C40.9477 26.4188 40.9418 26.4369 40.9324 26.4532C40.9229 26.4695 40.9101 26.4836 40.8948 26.4945C37.791 28.7935 34.3176 30.5459 30.6243 31.6764C30.5981 31.6845 30.57 31.6843 30.544 31.6757C30.518 31.6671 30.4953 31.6506 30.4791 31.6284C29.6983 30.5447 28.9978 29.4054 28.3831 28.2195C28.3746 28.2031 28.3696 28.185 28.3685 28.1665C28.3674 28.148 28.3703 28.1295 28.3769 28.1121C28.3835 28.0948 28.3937 28.0791 28.4068 28.066C28.4199 28.0529 28.4356 28.0427 28.4529 28.0361C29.5624 27.6191 30.6346 27.1089 31.6579 26.5109C31.6767 26.5 31.6925 26.4846 31.7038 26.466C31.7152 26.4475 31.7218 26.4264 31.723 26.4047C31.7242 26.383 31.72 26.3614 31.7108 26.3417C31.7016 26.322 31.6876 26.3049 31.6702 26.2919C31.4534 26.1306 31.2407 25.964 31.0322 25.7922C31.0137 25.777 30.9913 25.7674 30.9675 25.7645C30.9438 25.7616 30.9197 25.7655 30.8981 25.7758C24.2554 28.8424 16.9776 28.8424 10.2569 25.7758C10.2353 25.7661 10.2115 25.7626 10.188 25.7658C10.1645 25.7689 10.1424 25.7785 10.1241 25.7936C9.91878 25.9633 9.70247 26.1317 9.48752 26.2919C9.47014 26.305 9.45628 26.3222 9.44718 26.3419C9.43808 26.3617 9.43403 26.3834 9.43538 26.4051C9.43674 26.4268 9.44347 26.4479 9.45496 26.4663C9.46645 26.4848 9.48234 26.5001 9.50122 26.5109C10.5239 27.0969 11.5876 27.6144 12.7048 28.0374C12.7773 28.0648 12.8116 28.147 12.776 28.2181C12.1711 29.411 11.4692 30.5521 10.6772 31.6298C10.6607 31.6511 10.6382 31.6669 10.6125 31.6752C10.5869 31.6836 10.5593 31.6839 10.5335 31.6764C6.84628 30.5427 3.37844 28.791 0.277942 26.4959C0.263034 26.4843 0.250617 26.4699 0.241441 26.4534C0.232264 26.437 0.226518 26.4188 0.224549 26.4001C-0.491463 18.7389 0.967942 10.9832 6.29217 3.03041C6.30526 3.00969 6.32437 2.99345 6.34693 2.98386C9.00922 1.76083 11.8192 0.889194 14.7063 0.390887C14.7326 0.38657 14.7596 0.390268 14.7838 0.401499C14.808 0.412731 14.8282 0.430977 14.8419 0.453864C15.2033 1.09595 15.6181 1.91874 15.8988 2.59095C19.0106 2.11866 22.1759 2.11866 25.2877 2.59095C25.5684 1.9338 25.9681 1.09595 26.3282 0.455233C26.341 0.431538 26.3611 0.412539 26.3855 0.400976C26.4098 0.389412 26.4372 0.385879 26.4637 0.390887C29.3505 0.889631 32.1604 1.76077 34.8231 2.98249C34.8464 2.99208 34.8642 3.00988 34.8765 3.03178V3.03041ZM17.4704 17.5971C17.5033 15.3313 15.8522 13.4571 13.7795 13.4571C11.7232 13.4571 10.0885 15.3149 10.0885 17.5957C10.0885 19.8765 11.756 21.7343 13.7795 21.7343C15.8358 21.7343 17.4704 19.8779 17.4704 17.5971ZM31.1171 17.5971C31.15 15.3313 29.4989 13.4571 27.4262 13.4571C25.3698 13.4571 23.7352 15.3149 23.7352 17.5957C23.7352 19.8765 25.4027 21.7343 27.4262 21.7343C29.4989 21.7343 31.1171 19.8779 31.1171 17.5971Z" fill="black"/>
</svg>

