<svg width="26" height="20" viewBox="0 0 26 20" fill="none" xmlns="http://www.w3.org/2000/svg">
<g clip-path="url(#clip0_338_15743)">
<g clip-path="url(#clip1_338_15743)">
<g clip-path="url(#clip2_338_15743)">
<g clip-path="url(#clip3_338_15743)">
<path d="M21.6959 2.02507C24.5192 6.17674 25.9134 10.8592 25.3926 16.2501C25.3914 16.2615 25.3878 16.2725 25.3821 16.2824C25.3763 16.2923 25.3685 16.3009 25.3592 16.3076C23.4699 17.7069 21.3557 18.7736 19.1076 19.4617C19.0916 19.4667 19.0746 19.4665 19.0587 19.4613C19.0429 19.4561 19.0291 19.446 19.0192 19.4326C18.5439 18.7729 18.1175 18.0794 17.7434 17.3576C17.7382 17.3476 17.7352 17.3366 17.7345 17.3253C17.7339 17.314 17.7356 17.3028 17.7396 17.2922C17.7436 17.2817 17.7498 17.2721 17.7578 17.2641C17.7658 17.2561 17.7753 17.2499 17.7859 17.2459C18.4612 16.9921 19.1138 16.6815 19.7367 16.3176C19.7482 16.3109 19.7578 16.3015 19.7647 16.2902C19.7716 16.279 19.7756 16.2661 19.7764 16.2529C19.7771 16.2397 19.7746 16.2265 19.7689 16.2145C19.7633 16.2025 19.7548 16.1921 19.7442 16.1842C19.6123 16.0861 19.4828 15.9847 19.3559 15.8801C19.3446 15.8708 19.331 15.865 19.3165 15.8632C19.3021 15.8614 19.2874 15.8638 19.2742 15.8701C15.2309 17.7367 10.8009 17.7367 6.71006 15.8701C6.69691 15.8642 6.68238 15.8621 6.6681 15.864C6.65383 15.8659 6.64036 15.8718 6.62923 15.8809C6.50423 15.9842 6.37256 16.0867 6.24173 16.1842C6.23115 16.1922 6.22271 16.2027 6.21717 16.2147C6.21163 16.2267 6.20916 16.2399 6.20999 16.2531C6.21081 16.2664 6.21491 16.2792 6.2219 16.2904C6.2289 16.3017 6.23857 16.311 6.25006 16.3176C6.87256 16.6742 7.52006 16.9892 8.20006 17.2467C8.24423 17.2634 8.26506 17.3134 8.24339 17.3567C7.87524 18.0828 7.44796 18.7774 6.96589 19.4334C6.95584 19.4464 6.94212 19.456 6.92651 19.4611C6.9109 19.4661 6.89414 19.4663 6.87839 19.4617C4.63401 18.7717 2.52316 17.7054 0.635894 16.3084C0.626819 16.3014 0.619261 16.2926 0.613676 16.2826C0.60809 16.2725 0.604593 16.2615 0.603394 16.2501C0.167561 11.5867 1.05589 6.8659 4.29673 2.02507C4.3047 2.01245 4.31633 2.00257 4.33006 1.99674C5.95058 1.25228 7.66104 0.721719 9.41839 0.418402C9.4344 0.415774 9.45083 0.418025 9.46555 0.424861C9.48026 0.431698 9.49258 0.442804 9.50089 0.456735C9.72089 0.847568 9.97339 1.3484 10.1442 1.75757C12.0384 1.47009 13.9651 1.47009 15.8592 1.75757C16.0301 1.35757 16.2734 0.847568 16.4926 0.457568C16.5004 0.443145 16.5126 0.431581 16.5274 0.424542C16.5423 0.417504 16.5589 0.415353 16.5751 0.418402C18.3323 0.721985 20.0426 1.25224 21.6634 1.9959C21.6776 2.00174 21.6884 2.01257 21.6959 2.0259V2.02507ZM11.1009 10.8917C11.1209 9.51257 10.1159 8.37174 8.85423 8.37174C7.60256 8.37174 6.60756 9.50257 6.60756 10.8909C6.60756 12.2792 7.62256 13.4101 8.85423 13.4101C10.1059 13.4101 11.1009 12.2801 11.1009 10.8917ZM19.4076 10.8917C19.4276 9.51257 18.4226 8.37174 17.1609 8.37174C15.9092 8.37174 14.9142 9.50257 14.9142 10.8909C14.9142 12.2792 15.9292 13.4101 17.1609 13.4101C18.4226 13.4101 19.4076 12.2801 19.4076 10.8917Z" fill="#7870FF"/>
</g>
</g>
</g>
</g>
<defs>
<clipPath id="clip0_338_15743">
<rect width="25" height="20" fill="white" transform="translate(0.5)"/>
</clipPath>
<clipPath id="clip1_338_15743">
<rect width="25" height="20" fill="white" transform="translate(0.5)"/>
</clipPath>
<clipPath id="clip2_338_15743">
<rect width="25" height="20" fill="white" transform="translate(0.5)"/>
</clipPath>
<clipPath id="clip3_338_15743">
<rect width="25" height="19.1667" fill="white" transform="translate(0.5 0.416687)"/>
</clipPath>
</defs>
</svg>

