<svg width="26" height="25" viewBox="0 0 26 25" fill="none" xmlns="http://www.w3.org/2000/svg">
<g clip-path="url(#clip0_338_15776)">
<g clip-path="url(#clip1_338_15776)">
<g clip-path="url(#clip2_338_15776)">
<g clip-path="url(#clip3_338_15776)">
<path d="M13 0.20752C6.21086 0.20752 0.70752 5.71086 0.70752 12.5C0.70752 19.2891 6.21086 24.7925 13 24.7925C19.7891 24.7925 25.2925 19.2891 25.2925 12.5C25.2925 5.71086 19.7891 0.20752 13 0.20752Z" fill="#29B6F6"/>
<path d="M19.1156 6.96818L16.8126 18.7236C16.8126 18.7236 16.7129 19.2607 16.0476 19.2607C15.6936 19.2607 15.5105 19.0918 15.5105 19.0918L10.5239 14.9536L8.08455 13.7248L4.95345 12.8906C4.95345 12.8906 4.396 12.7299 4.396 12.2701C4.396 11.8856 4.96973 11.7025 4.96973 11.7025L18.0699 6.49821C18.0699 6.49821 18.4707 6.35376 18.7616 6.35376C18.9407 6.35376 19.1462 6.43107 19.1462 6.66097C19.1462 6.81559 19.1156 6.96818 19.1156 6.96818Z" fill="white"/>
<path d="M12.3855 16.4978L10.2798 18.571C10.2798 18.571 10.1882 18.6422 10.0662 18.6442C10.0234 18.6462 9.97868 18.6401 9.93188 18.6198L10.5239 14.9536L12.3855 16.4978Z" fill="#B0BEC5"/>
<path d="M16.6234 8.93353C16.5196 8.79721 16.3284 8.7728 16.1941 8.87656L8.08252 13.7289C8.08252 13.7289 9.3785 17.3503 9.57585 17.9769C9.77319 18.6056 9.93188 18.6198 9.93188 18.6198L10.5239 14.9536L16.5664 9.36281C16.7007 9.26108 16.7271 9.0678 16.6234 8.93353Z" fill="#CFD8DC"/>
</g>
</g>
</g>
</g>
<defs>
<clipPath id="clip0_338_15776">
<rect width="25" height="25" fill="white" transform="translate(0.5)"/>
</clipPath>
<clipPath id="clip1_338_15776">
<rect width="25" height="25" fill="white" transform="translate(0.5)"/>
</clipPath>
<clipPath id="clip2_338_15776">
<rect width="25" height="25" fill="white" transform="translate(0.5)"/>
</clipPath>
<clipPath id="clip3_338_15776">
<rect width="25" height="25" fill="white" transform="translate(0.5)"/>
</clipPath>
</defs>
</svg>

