<svg width="42" height="42" viewBox="0 0 42 42" fill="none" xmlns="http://www.w3.org/2000/svg">
<path d="M20.6627 0.5C9.32148 0.5 0.126953 9.69452 0.126953 21.0357C0.126953 32.3769 9.32148 41.5714 20.6627 41.5714C32.0039 41.5714 41.1984 32.3769 41.1984 21.0357C41.1984 9.69452 32.0039 0.5 20.6627 0.5ZM30.1817 14.4657C29.8722 17.713 28.5347 25.5933 27.8543 29.2295C27.5668 30.7696 27 31.2858 26.451 31.3351C25.2599 31.4446 24.3536 30.5465 23.1981 29.7894C21.391 28.6052 20.3697 27.8673 18.6159 26.7118C16.587 25.3756 17.9027 24.6418 19.0581 23.4411C19.3593 23.1263 24.6137 18.3483 24.7164 17.9143C24.7301 17.8595 24.7411 17.6583 24.6206 17.5515C24.5001 17.4447 24.3235 17.4817 24.1962 17.5104C24.0141 17.5515 21.1268 19.4599 15.5342 23.2358C14.7128 23.7985 13.9721 24.0709 13.3054 24.0572C12.573 24.0435 11.1628 23.6438 10.1142 23.3029C8.82725 22.8853 7.80594 22.6635 7.8963 21.953C7.94148 21.5833 8.45076 21.2055 9.42279 20.8194C15.4096 18.21 19.4004 16.4918 21.3978 15.6608C27.1013 13.2869 28.2883 12.8762 29.059 12.8625C30.027 12.8447 30.2597 13.6429 30.1817 14.4657Z" fill="black"/>
</svg>

