<svg width="38" height="38" viewBox="0 0 38 38" fill="none" xmlns="http://www.w3.org/2000/svg">
<path d="M23.5107 28.4116H26.281L13.5294 10.1717H10.7591L23.5107 28.4116Z" fill="black"/>
<path fill-rule="evenodd" clip-rule="evenodd" d="M23.3124 0.507812H13.7432C9.00561 0.507812 7.29663 1.02368 5.56704 1.94867C3.78822 2.89999 2.39218 4.29603 1.44085 6.07486C0.515863 7.80444 0 9.51342 0 14.251V23.8202C0 28.5578 0.515863 30.2667 1.44085 31.9963C2.39218 33.7752 3.78822 35.1712 5.56704 36.1225C7.29663 37.0475 9.00561 37.5634 13.7432 37.5634H23.3124C28.0499 37.5634 29.7589 37.0475 31.4885 36.1225C33.2673 35.1712 34.6634 33.7752 35.6147 31.9963C36.5397 30.2667 37.0556 28.5578 37.0556 23.8202V14.251C37.0556 9.51342 36.5397 7.80444 35.6147 6.07486C34.6634 4.29603 33.2673 2.89999 31.4885 1.94867C29.7589 1.02368 28.0499 0.507812 23.3124 0.507812ZM28.0837 8.81391L20.4728 17.661L28.75 29.7076H22.6622L17.088 21.5954L10.1092 29.7076H8.30559L16.2873 20.4301L8.30559 8.81391H14.3934L19.6716 16.4957L26.2802 8.81391H28.0837Z" fill="black"/>
</svg>

