<svg width="26" height="25" viewBox="0 0 26 25" fill="none" xmlns="http://www.w3.org/2000/svg">
<g clip-path="url(#clip0_338_15758)">
<g clip-path="url(#clip1_338_15758)">
<g clip-path="url(#clip2_338_15758)">
<g clip-path="url(#clip3_338_15758)">
<path fill-rule="evenodd" clip-rule="evenodd" d="M9.8797 0.416687H16.1205C19.2102 0.416687 20.3247 0.75312 21.4527 1.35637C22.6128 1.97681 23.5233 2.88726 24.1437 4.04737C24.747 5.17536 25.0834 6.28991 25.0834 9.37964V15.6204C25.0834 18.7101 24.747 19.8247 24.1437 20.9527C23.5233 22.1128 22.6128 23.0232 21.4527 23.6437C20.3247 24.2469 19.2102 24.5834 16.1205 24.5834H9.8797C6.78997 24.5834 5.67542 24.2469 4.54743 23.6437C3.38732 23.0232 2.47687 22.1128 1.85643 20.9527C1.25318 19.8247 0.916748 18.7101 0.916748 15.6204V9.37964C0.916748 6.28991 1.25318 5.17536 1.85643 4.04737C2.47687 2.88726 3.38732 1.97681 4.54743 1.35637C5.67542 0.75312 6.78997 0.416687 9.8797 0.416687Z" fill="black" stroke="white" stroke-width="0.833333"/>
<path d="M14.2686 11.6032L19.2323 5.83337H18.0561L13.7461 10.8432L10.3038 5.83337H6.3335L11.539 13.4092L6.3335 19.4597H7.50978L12.0612 14.1691L15.6965 19.4597H19.6668L14.2686 11.6032ZM12.6576 13.4759L12.1301 12.7215L7.93362 6.71887H9.74033L13.127 11.5632L13.6544 12.3176L18.0566 18.6145H16.2499L12.6576 13.4759Z" fill="white" stroke="white" stroke-width="0.25"/>
</g>
</g>
</g>
</g>
<defs>
<clipPath id="clip0_338_15758">
<rect width="25" height="25" fill="white" transform="translate(0.5)"/>
</clipPath>
<clipPath id="clip1_338_15758">
<rect width="25" height="25" fill="white" transform="translate(0.5)"/>
</clipPath>
<clipPath id="clip2_338_15758">
<rect width="25" height="25" fill="white" transform="translate(0.5)"/>
</clipPath>
<clipPath id="clip3_338_15758">
<rect width="25" height="25" fill="white" transform="translate(0.5)"/>
</clipPath>
</defs>
</svg>

