<svg width="40" height="40" viewBox="0 0 40 40" fill="none" xmlns="http://www.w3.org/2000/svg">
<g clip-path="url(#clip0_310_2754)">
<path d="M40 -2.19043H0V40.0001H40V-2.19043Z" fill="#DFFF67"/>
<path d="M7.90713 32.0407V21.0715H4.82031V16.8271C6.3086 16.8271 7.34672 16.5515 7.93469 16.0003C8.52266 15.4307 8.85338 14.5304 8.92688 13.2993H13.4193V32.0407H7.90713Z" fill="#080808"/>
<path d="M11.3048 12.3054C10.6338 12.3054 10.0721 12.0866 9.61986 11.6489C9.18221 11.1967 8.96338 10.6569 8.96338 10.0296C8.96338 9.38773 9.18221 8.84795 9.61986 8.4103C10.0721 7.95806 10.6338 7.73193 11.3048 7.73193C11.9613 7.73193 12.5084 7.95806 12.946 8.4103C13.3983 8.84795 13.6244 9.38773 13.6244 10.0296C13.6244 10.6569 13.3983 11.1967 12.946 11.6489C12.5084 12.0866 11.9613 12.3054 11.3048 12.3054Z" fill="#080808"/>
<path d="M15.1782 32.2682V7.79663H23.953C27.379 7.79663 30.0709 8.90368 32.0286 11.1178C34.0096 13.3086 35.0002 16.2801 35.0002 20.0324C35.0002 23.7614 33.998 26.7329 31.9937 28.947C30.0126 31.1611 27.2858 32.2682 23.8132 32.2682H15.1782ZM22.1701 26.5348H23.6733C26.4468 26.5348 27.8335 24.3673 27.8335 20.0324C27.8335 15.6974 26.4468 13.53 23.6733 13.53H22.1701V26.5348Z" fill="#080808"/>
</g>
<defs>
<clipPath id="clip0_310_2754">
<rect width="40" height="40" rx="20" fill="white"/>
</clipPath>
</defs>
</svg>

