<svg width="80" height="52" viewBox="0 0 80 52" fill="none" xmlns="http://www.w3.org/2000/svg">
<rect y="0.5" width="79.8261" height="51" rx="2" fill="#DFFF67"/>
<path d="M18.9171 46.9749V27.5827H13.46V20.0791C16.0911 20.0791 17.9264 19.5919 18.9658 18.6174C20.0053 17.6104 20.5899 16.0188 20.7199 13.8424H28.6619V46.9749H18.9171Z" fill="#080808"/>
<path d="M24.9241 12.0854C23.7377 12.0854 22.7448 11.6985 21.9453 10.9248C21.1715 10.1253 20.7847 9.17104 20.7847 8.06204C20.7847 6.92725 21.1715 5.97299 21.9453 5.19927C22.7448 4.39976 23.7377 4 24.9241 4C26.0847 4 27.0518 4.39976 27.8255 5.19927C28.625 5.97299 29.0248 6.92725 29.0248 8.06204C29.0248 9.17104 28.625 10.1253 27.8255 10.9248C27.0518 11.6985 26.0847 12.0854 24.9241 12.0854Z" fill="#080808"/>
<path d="M31.7715 47.3771V4.11438H47.2843C53.341 4.11438 58.0999 6.0715 61.561 9.98575C65.0632 13.8588 66.8143 19.1121 66.8143 25.7457C66.8143 32.3382 65.0426 37.5915 61.4992 41.5057C57.9969 45.42 53.1762 47.3771 47.037 47.3771H31.7715ZM44.1323 37.2413H46.7898C51.6929 37.2413 54.1445 33.4094 54.1445 25.7457C54.1445 18.0821 51.6929 14.2502 46.7898 14.2502H44.1323V37.2413Z" fill="#080808"/>
</svg>

